#!OML:ASF X:\für Bonn\!DataBase\2005_08_10_Bjorn_Final\c3d\bjorn.ASF
:FULLY-SPECIFIED
:DEGREES
74
root 4.27548 19.2632 24.0339 5.31192 -7.17745 1.80298
lowerback 5.95001 0.852367 0.904748
upperback 9.61119 1.18629 -1.35282
thorax 6.75571 0.698553 -1.92232
lowerneck -4.10176 -2.11602 0.121769
upperneck 3.41891 -2.85782 0.651281
head 1.76478 -1.40807 0.104113
rclavicle 2.11954e-014 -6.85807e-015
rhumerus -26.8902 -9.1235 -88.4527
rradius 89.5281
rwrist -187.19
rhand -7.95139e-015 -8.90555e-014
rfingers 7.12502
rthumb 25.5904 -28.3008
lclavicle 2.11954e-014 -6.85807e-015
lhumerus -26.6452 -19.0626 87.1219
lradius 84.1252
lwrist 3.5753
lhand -3.53042e-013 3.18055e-014
lfingers 7.12502
lthumb 25.5904 28.3008
rfemur -34.3412 -2.25416 10.4436
rtibia 51.996
rfoot 2.35882 13.1942
rtoes -14.4749
lfemur -34.7988 4.24211 -16.5419
ltibia 51.3035
lfoot 3.5219 -6.01465
ltoes -25.6212
75
root 4.26955 18.9486 24.1605 4.71488 -7.25133 1.86816
lowerback 6.68508 0.833457 0.907094
upperback 9.95507 1.16315 -1.38868
thorax 6.71534 0.690362 -1.97108
lowerneck -4.70823 -2.10663 0.212072
upperneck 2.93448 -2.84601 0.534804
head 1.71267 -1.40488 0.0490311
rclavicle -9.91439e-015 2.04748e-014
rhumerus -27.2107 -10.1558 -89.0325
rradius 87.48
rwrist -186.323
rhand 5.1525e-013 2.44903e-013
rfingers 7.12502
rthumb 25.5904 -28.3008
lclavicle -9.91439e-015 2.04748e-014
lhumerus -26.661 -18.295 88.0405
lradius 82.46
lwrist 4.47634
lhand 9.14409e-013 -3.78486e-013
lfingers 7.12502
lthumb 25.5904 28.3008
rfemur -34.1386 -1.88583 10.083
rtibia 53.9015
rfoot -1.1439 14.6881
rtoes -14.104
lfemur -34.6796 3.87264 -16.5069
ltibia 53.5158
lfoot -0.0381449 -6.72441
ltoes -27.4889
76
root 4.26389 18.642 24.2863 4.17176 -7.3058 1.97864
lowerback 7.42151 0.801137 0.867391
upperback 10.2778 1.12159 -1.44268
thorax 6.65211 0.670553 -2.01502
lowerneck -5.68972 -2.09111 0.428126
upperneck 2.64471 -2.83316 0.250936
head 1.78613 -1.4028 -0.0856238
rclavicle 8.83971e-015 -1.08089e-015
rhumerus -27.3755 -11.3577 -89.5297
rradius 85.2581
rwrist -185.301
rhand 3.19646e-013 -1.17681e-012
rfingers 7.12502
rthumb 25.5904 -28.3008
lclavicle 8.83971e-015 -1.08089e-015
lhumerus -26.613 -17.344 88.8628
lradius 80.5991
lwrist 4.76145
lhand -8.44437e-013 -1.06867e-012
lfingers 7.12502
lthumb 25.5904 28.3008
rfemur -33.9995 -1.62652 9.71567
rtibia 55.9019
rfoot -4.99421 16.1109
rtoes -13.9686
lfemur -34.6464 3.51044 -16.5574
ltibia 55.8039
lfoot -4.06481 -6.91229
ltoes -29.7277
77
root 4.25945 18.3414 24.4088 3.8431 -7.38549 2.12183
lowerback 8.00547 0.79345 0.818069
upperback 10.5103 1.11278 -1.52331
thorax 6.57989 0.666955 -2.07985
lowerneck -6.59892 -2.08783 0.556902
upperneck 2.2172 -2.83946 0.134775
head 1.80624 -1.40875 -0.152282
rclavicle -4.12261e-014 2.36305e-014
rhumerus -27.5426 -12.7747 -89.8949
rradius 82.8672
rwrist -184.078
rhand 3.86437e-013 1.21497e-012
rfingers 7.12502
rthumb 25.5904 -28.3008
lclavicle -4.12261e-014 2.36305e-014
lhumerus -26.5491 -16.4043 89.6277
lradius 78.4478
lwrist 4.64321
lhand 1.52508e-012 3.88028e-013
lfingers 7.12502
lthumb 25.5904 28.3008
rfemur -34.1905 -1.46445 9.37225
rtibia 58.0425
rfoot -9.08443 17.2793
rtoes -14.2084
lfemur -34.8906 3.18353 -16.6951
ltibia 58.1777
lfoot -8.32009 -6.52094
ltoes -31.8218
78
root 4.25586 18.0529 24.5276 3.73421 -7.44863 2.34536
lowerback 8.42488 0.770925 0.643966
upperback 10.6399 1.07849 -1.59367
thorax 6.48352 0.640496 -2.06121
lowerneck -7.4135 -2.06247 0.595677
upperneck 1.67944 -2.81132 0.0638255
head 1.77539 -1.39825 -0.186236
rclavicle 1.59773e-014 -9.6659e-015
rhumerus -27.8012 -14.205 -90.104
rradius 80.3853
rwrist -182.292
rhand 2.56035e-013 -7.50611e-013
rfingers 7.12502
rthumb 25.5904 -28.3008
lclavicle 1.59773e-014 -9.6659e-015
lhumerus -26.3782 -15.3202 90.3709
lradius 75.9257
lwrist 4.41358
lhand -5.05708e-013 -7.15625e-013
lfingers 7.12502
lthumb 25.5904 28.3008
rfemur -34.7395 -1.46412 9.00999
rtibia 60.337
rfoot -13.3306 18.0291
rtoes -15.1981
lfemur -35.4157 2.82355 -16.9535
ltibia 60.595
lfoot -12.4757 -5.7012
ltoes -33.147
79
root 4.25289 17.7749 24.6426 3.76454 -7.50589 2.43704
lowerback 8.74033 0.741457 0.608832
upperback 10.7219 1.03839 -1.64275
thorax 6.39623 0.619839 -2.09623
lowerneck -8.25716 -2.03919 0.647935
upperneck 1.13693 -2.78802 -0.021067
head 1.74746 -1.3907 -0.227306
rclavicle 4.67455e-015 1.13711e-014
rhumerus -28.0326 -15.7912 -90.1962
rradius 77.6935
rwrist -180.667
rhand 7.4425e-013 1.55847e-013
rfingers 7.12502
rthumb 25.5904 -28.3008
lclavicle 4.67455e-015 1.13711e-014
lhumerus -26.0383 -14.1172 91.0267
lradius 72.8546
lwrist 4.12771
lhand 5.23201e-013 -5.43875e-013
lfingers 7.12502
lthumb 25.5904 28.3008
rfemur -35.5221 -1.57716 8.87268
rtibia 62.7646
rfoot -17.6068 18.1972
rtoes -17.1872
lfemur -36.0916 2.53641 -17.1041
ltibia 63.0355
lfoot -16.2385 -4.71386
ltoes -33.3547
80
root 4.25003 17.5104 24.7521 3.76714 -7.55269 2.44058
lowerback 9.12581 0.720636 0.650001
upperback 10.7701 1.01115 -1.66536
thorax 6.23476 0.60915 -2.14721
lowerneck -8.98211 -2.03828 0.7512
upperneck 0.555942 -2.79879 -0.152324
head 1.68373 -1.40167 -0.290899
rclavicle 3.425e-014 1.38932e-014
rhumerus -28.33 -17.6002 -90.0946
rradius 74.7907
rwrist -179.159
rhand 1.52349e-012 -2.14369e-012
rfingers 7.12502
rthumb 25.5904 -28.3008
lclavicle 3.425e-014 1.38932e-014
lhumerus -25.4913 -12.6591 91.6324
lradius 69.0255
lwrist 3.74487
lhand -7.77646e-013 -2.54762e-012
lfingers 7.12502
lthumb 25.5904 28.3008
rfemur -36.3142 -1.72928 8.90526
rtibia 65.2252
rfoot -21.4798 17.906
rtoes -18.4339
lfemur -36.7441 2.22172 -17.1798
ltibia 65.4642
lfoot -19.4199 -3.60275
ltoes -32.6437
81
root 4.24773 17.2581 24.8583 3.7538 -7.61502 2.4876
lowerback 9.51792 0.693802 0.643781
upperback 10.8247 0.97461 -1.70767
thorax 6.07643 0.59129 -2.19187
lowerneck -9.46341 -2.01873 0.815582
upperneck -0.320383 -2.78307 -0.200025
head 1.48178 -1.39905 -0.314143
rclavicle 3.53247e-014 -2.06363e-014
rhumerus -28.5983 -19.5671 -89.8857
rradius 71.5754
rwrist -177.842
rhand -6.26569e-013 -1.68569e-012
rfingers 7.12502
rthumb 25.5904 -28.3008
lclavicle 3.53247e-014 -2.06363e-014
lhumerus -24.8302 -10.943 92.1294
lradius 64.7333
lwrist 3.42027
lhand -1.29608e-012 -8.30125e-013
lfingers 7.12502
lthumb 25.5904 28.3008
rfemur -37.088 -1.86454 8.91774
rtibia 67.6535
rfoot -24.5604 17.3952
rtoes -18.7232
lfemur -37.361 1.87984 -17.3396
ltibia 67.8457
lfoot -22.0503 -2.28671
ltoes -32.0944
82
root 4.24504 17.0214 24.9618 3.80022 -7.63323 2.53867
lowerback 9.8876 0.66739 0.634811
upperback 10.8529 0.938217 -1.74081
thorax 5.90175 0.572719 -2.22474
lowerneck -9.89405 -2.01518 0.810883
upperneck -1.28855 -2.78346 -0.17295
head 1.24355 -1.40332 -0.301253
rclavicle -1.89405e-014 1.02001e-014
rhumerus -28.8815 -21.7046 -89.4764
rradius 67.9851
rwrist -176.943
rhand 1.18317e-012 -6.23389e-013
rfingers 7.12502
rthumb 25.5904 -28.3008
lclavicle -1.89405e-014 1.02001e-014
lhumerus -24.0935 -8.94435 92.5793
lradius 60.0004
lwrist 3.02758
lhand -1.04958e-013 -9.79611e-013
lfingers 7.12502
lthumb 25.5904 28.3008
rfemur -37.8492 -1.99739 8.93642
rtibia 69.9704
rfoot -27.1941 16.6062
rtoes -19.8824
lfemur -38.0443 1.47358 -17.5303
ltibia 70.1605
lfoot -24.2454 -0.77886
ltoes -31.8846
83
root 4.24278 16.8035 25.0632 3.98932 -7.67217 2.54974
lowerback 10.1591 0.638292 0.650011
upperback 10.8374 0.899288 -1.76497
thorax 5.73415 0.553839 -2.2601
lowerneck -10.3181 -2.00773 0.815638
upperneck -2.29413 -2.77973 -0.158186
head 0.992639 -1.4061 -0.293168
rclavicle 1.41137e-014 2.43511e-015
rhumerus -29.1772 -24.0909 -88.8432
rradius 63.8996
rwrist -176.327
rhand 1.02414e-012 -8.65111e-013
rfingers 7.12502
rthumb 25.5904 -28.3008
lclavicle 1.41137e-014 2.43511e-015
lhumerus -23.2307 -6.67808 92.9039
lradius 55.0776
lwrist 2.87381
lhand -1.38354e-013 -1.12274e-012
lfingers 7.12502
lthumb 25.5904 28.3008
rfemur -38.6968 -2.04693 8.99706
rtibia 72.1216
rfoot -29.5912 15.5352
rtoes -22.4201
lfemur -38.8541 1.03117 -17.6802
ltibia 72.3598
lfoot -26.0517 0.396242
ltoes -30.7041
84
root 4.24085 16.6082 25.1624 4.29134 -7.69431 2.58922
lowerback 10.4075 0.603673 0.652319
upperback 10.7103 0.852387 -1.80146
thorax 5.45689 0.529139 -2.3001
lowerneck -10.5843 -2.00214 0.839596
upperneck -3.30016 -2.77953 -0.159679
head 0.715264 -1.41108 -0.291242
rclavicle 2.68981e-015 1.86112e-014
rhumerus -29.5053 -26.8738 -87.8298
rradius 59.3259
rwrist -175.528
rhand -5.40694e-014 1.37082e-012
rfingers 7.12502
rthumb 25.5904 -28.3008
lclavicle 2.68981e-015 1.86112e-014
lhumerus -22.3546 -4.1146 93.1102
lradius 50.1536
lwrist 2.8741
lhand 8.11041e-013 1.02096e-012
lfingers 7.12502
lthumb 25.5904 28.3008
rfemur -39.5519 -1.98227 8.99326
rtibia 74.0611
rfoot -31.5957 14.6188
rtoes -24.106
lfemur -39.7416 0.526139 -17.8579
ltibia 74.3828
lfoot -27.6046 1.90797
ltoes -31.1106
85
root 4.23725 16.4374 25.2619 4.60385 -7.709 2.6706
lowerback 10.6758 0.572447 0.609888
upperback 10.5217 0.807136 -1.85313
thorax 5.1021 0.502004 -2.33079
lowerneck -10.6526 -2.01188 0.813314
upperneck -4.35068 -2.79263 -0.0903222
head 0.394021 -1.42123 -0.256526
rclavicle 1.93939e-014 -1.09083e-014
rhumerus -29.8705 -30.1595 -86.3675
rradius 54.3294
rwrist -174.343
rhand -3.08514e-013 -5.24792e-013
rfingers 7.12502
rthumb 25.5904 -28.3008
lclavicle 1.93939e-014 -1.09083e-014
lhumerus -21.5333 -1.3553 93.1325
lradius 45.4462
lwrist 2.98071
lhand -1.84472e-013 -4.13472e-013
lfingers 7.12502
lthumb 25.5904 28.3008
rfemur -40.2781 -1.77367 8.89596
rtibia 75.7356
rfoot -33.1087 14.147
rtoes -24.1459
lfemur -40.5543 -0.0274608 -18.0568
ltibia 76.1768
lfoot -28.8689 3.20991
ltoes -31.5157
